<?xml version="1.0" encoding="utf-8"?>
<!-- Generator: Adobe Illustrator 24.0.0, SVG Export Plug-In . SVG Version: 6.00 Build 0)  -->
<svg version="1.1" id="Layer_1" xmlns="http://www.w3.org/2000/svg" xmlns:xlink="http://www.w3.org/1999/xlink" x="0px" y="0px"
	 viewBox="0 0 800 800" style="enable-background:new 0 0 800 800;" xml:space="preserve">
<style type="text/css">
	.st0{fill-rule:evenodd;clip-rule:evenodd;fill:#FFFFFF;}
	.st1{fill:#FFFFFF;}
</style>
<g>
	<path class="st0" d="M400.5,169.1C269.9,169.1,164,274.98,164,405.6c0,104.49,67.76,193.14,161.73,224.41
		c11.82,2.19,16.16-5.13,16.16-11.38c0-5.64-0.22-24.27-0.32-44.03c-65.79,14.31-79.68-27.9-79.68-27.9
		c-10.76-27.33-26.26-34.6-26.26-34.6c-21.46-14.68,1.62-14.38,1.62-14.38c23.75,1.67,36.25,24.37,36.25,24.37
		c21.09,36.15,55.33,25.7,68.82,19.66c2.12-15.28,8.25-25.72,15.02-31.63c-52.53-5.98-107.75-26.26-107.75-116.88
		c0-25.82,9.24-46.92,24.37-63.48c-2.46-5.96-10.55-30.01,2.29-62.59c0,0,19.86-6.35,65.05,24.25c18.87-5.24,39.1-7.87,59.2-7.96
		c20.1,0.09,40.35,2.72,59.25,7.96c45.14-30.6,64.97-24.25,64.97-24.25c12.87,32.58,4.78,56.63,2.32,62.59
		c15.16,16.56,24.34,37.66,24.34,63.48c0,90.84-55.33,110.84-107.99,116.69c8.48,7.34,16.04,21.73,16.04,43.8
		c0,31.64-0.27,57.11-0.27,64.9c0,6.3,4.26,13.67,16.24,11.35C569.32,598.67,637,510.06,637,405.6
		C637,274.98,531.11,169.1,400.5,169.1z"/>
	<path class="st1" d="M253.58,508.66c-0.52,1.18-2.37,1.53-4.05,0.72c-1.72-0.77-2.68-2.37-2.12-3.55c0.51-1.21,2.36-1.55,4.07-0.74
		C253.19,505.86,254.17,507.48,253.58,508.66L253.58,508.66z M250.66,506.5"/>
	<path class="st1" d="M263.16,519.35c-1.13,1.04-3.34,0.56-4.83-1.09c-1.55-1.65-1.84-3.86-0.69-4.91c1.16-1.04,3.3-0.55,4.85,1.09
		C264.03,516.1,264.33,518.29,263.16,519.35L263.16,519.35z M260.9,516.92"/>
	<path class="st1" d="M272.48,532.96c-1.45,1.01-3.82,0.07-5.29-2.04c-1.45-2.1-1.45-4.63,0.03-5.64c1.47-1.01,3.8-0.1,5.29,1.98
		C273.96,529.41,273.96,531.94,272.48,532.96L272.48,532.96z M272.48,532.96"/>
	<path class="st1" d="M285.25,546.13c-1.3,1.43-4.06,1.04-6.08-0.91c-2.07-1.9-2.64-4.61-1.35-6.04c1.32-1.43,4.09-1.03,6.13,0.91
		C286.01,541.99,286.63,544.71,285.25,546.13L285.25,546.13z M285.25,546.13"/>
	<path class="st1" d="M302.88,553.77c-0.57,1.85-3.23,2.69-5.91,1.9c-2.68-0.81-4.43-2.98-3.89-4.85c0.55-1.87,3.23-2.74,5.92-1.9
		C301.68,549.73,303.43,551.88,302.88,553.77L302.88,553.77z M302.88,553.77"/>
	<path class="st1" d="M322.23,555.18c0.07,1.95-2.21,3.57-5.02,3.6c-2.83,0.07-5.12-1.51-5.15-3.43c0-1.97,2.22-3.57,5.05-3.62
		C319.93,551.68,322.23,553.25,322.23,555.18L322.23,555.18z M322.23,555.18"/>
	<path class="st1" d="M340.24,552.12c0.34,1.9-1.62,3.86-4.41,4.38c-2.75,0.5-5.29-0.67-5.64-2.56c-0.34-1.95,1.65-3.9,4.39-4.41
		C337.38,549.04,339.89,550.18,340.24,552.12L340.24,552.12z M340.24,552.12"/>
</g>
</svg>
